<?xml version="1.0" encoding="UTF-8"?>
<svg width="1440px" height="1024px" viewBox="0 0 1440 1024" version="1.1" xmlns="http://www.w3.org/2000/svg" xmlns:xlink="http://www.w3.org/1999/xlink">
    <!-- Generator: Sketch 51.3 (57544) - http://www.bohemiancoding.com/sketch -->
    <title>undraw_lost_online_wqob</title>
    <desc>Created with Sketch.</desc>
    <defs></defs>
    <g id="Page-1" stroke="none" stroke-width="1" fill="none" fill-rule="evenodd">
        <g id="Desktop-HD" fill-rule="nonzero">
            <g id="undraw_lost_online_wqob" transform="translate(-73.000000, 0.000000)">
                <path d="M73,0 L1514,0 C1514,659.428523 979.524534,1194 320.215634,1194 L73,1194 L73,0 Z" id="Shape" fill="#320B86"></path>
                <circle id="Oval" fill="#FF6584" cx="776" cy="53" r="10"></circle>
                <circle id="Oval" fill="#FF6584" cx="1101" cy="724" r="10"></circle>
                <circle id="Oval" fill="#FF6584" cx="657" cy="946" r="10"></circle>
                <circle id="Oval" fill="#FF6584" cx="580" cy="295" r="10"></circle>
                <circle id="Oval" fill="#FF6584" cx="163" cy="502" r="10"></circle>
                <circle id="Oval" fill="#F2F2F2" cx="1135" cy="53" r="10"></circle>
                <circle id="Oval" fill="#F2F2F2" cx="1275" cy="536" r="10"></circle>
                <circle id="Oval" fill="#F2F2F2" cx="876" cy="323" r="10"></circle>
                <circle id="Oval" fill="#F2F2F2" cx="173" cy="73" r="10"></circle>
                <circle id="Oval" fill="#F2F2F2" cx="221" cy="860" r="10"></circle>
                <circle id="Oval" fill="#F2F2F2" cx="807" cy="840" r="10"></circle>
                <circle id="Oval" fill="#F2F2F2" cx="346" cy="257" r="10"></circle>
                <circle id="Oval" fill="#000000" opacity="0.2" cx="520" cy="534" r="50"></circle>
                <circle id="Oval" fill="#000000" opacity="0.2" cx="519.5" cy="869.5" r="86.5"></circle>
                <circle id="Oval" fill="#000000" opacity="0.2" cx="86.5" cy="285.5" r="86.5"></circle>
                <circle id="Oval" fill="#000000" opacity="0.2" cx="1394.5" cy="139.5" r="86.5"></circle>
                <circle id="Oval" fill="#000000" opacity="0.2" cx="268" cy="738" r="22"></circle>
                <circle id="Oval" fill="#000000" opacity="0.2" cx="1124.5" cy="229.5" r="11.5"></circle>
                <circle id="Oval" fill="#000000" opacity="0.2" cx="635.5" cy="458.5" r="11.5"></circle>
                <circle id="Oval" fill="#000000" opacity="0.2" cx="505" cy="688" r="15"></circle>
                <circle id="Oval" fill="#000000" opacity="0.2" cx="1096.5" cy="321.5" r="11.5"></circle>
                <circle id="Oval" fill="#000000" opacity="0.2" cx="785.5" cy="606.5" r="11.5"></circle>
                <circle id="Oval" fill="#000000" opacity="0.2" cx="1200" cy="312" r="17"></circle>
                <circle id="Oval" fill="#000000" opacity="0.2" cx="415.5" cy="109.5" r="11.5"></circle>
                <circle id="Oval" fill="#000000" opacity="0.2" cx="519" cy="100" r="17"></circle>
                <circle id="Oval" fill="#000000" opacity="0.2" cx="691" cy="724" r="17"></circle>
                <circle id="Oval" fill="#000000" opacity="0.2" cx="784" cy="208" r="50"></circle>
                <circle id="Oval" fill="#000000" opacity="0.2" cx="899.5" cy="132.5" r="11.5"></circle>
                <circle id="Oval" fill="#000000" opacity="0.2" cx="955" cy="398" r="17"></circle>
                <circle id="Oval" fill="#000000" opacity="0.2" transform="translate(1047.445663, 674.554337) rotate(19.000000) translate(-1047.445663, -674.554337) " cx="1047.44566" cy="674.554337" r="50"></circle>
                <circle id="Oval" fill="#000000" opacity="0.2" transform="translate(1076.500000, 513.500000) rotate(19.000000) translate(-1076.500000, -513.500000) " cx="1076.5" cy="513.5" r="11.5"></circle>
                <circle id="Oval" fill="#000000" opacity="0.2" transform="translate(993.608474, 871.608474) rotate(19.000000) translate(-993.608474, -871.608474) " cx="993.608474" cy="871.608474" r="17"></circle>
                <circle id="Oval" fill="#000000" opacity="0.2" cx="326" cy="534" r="22"></circle>
            </g>
        </g>
    </g>
</svg>