<?xml version="1.0" encoding="UTF-8"?>
<svg width="1100px" height="350px" viewBox="0 0 1100 830" version="1.1" xmlns="http://www.w3.org/2000/svg" xmlns:xlink="http://www.w3.org/1999/xlink">
    <!-- Generator: Sketch 51.3 (57544) - http://www.bohemiancoding.com/sketch -->
    <title>Group 8</title>
    <desc>Created with Sketch.</desc>
    <defs></defs>
    <g id="Page-1" stroke="none" stroke-width="1" fill="none" fill-rule="evenodd">
        <g id="Artboard" transform="translate(-285.000000, -5950.000000)">
            <g id="Group-8" transform="translate(283.000000, 5950.000000)">
                <g id="Group-7">
                    <g id="Group-2" transform="translate(177.000000, 0.000000)">
                        <path d="M58.5,1.17980784e-15 L512.064626,1.03271429e-14 L938.5,0 C970.808658,-5.93500417e-15 997,26.1913421 997,58.5 L997,58.5 C997,90.8086579 970.808658,117 938.5,117 L58.5,117 C26.1913421,117 3.95666944e-15,90.8086579 0,58.5 L0,58.5 C-3.95666944e-15,26.1913421 26.1913421,5.93500417e-15 58.5,0 Z" id="Rectangle-2" fill="#323232"></path>
                        <text id="Really?-Me-too!-I-pl" font-family="PTSans-Caption, PT Sans Caption" font-size="46" font-weight="normal" fill="#C6C6C6">
                            <tspan x="62" y="72">Really? Me too! I play the saxophone.</tspan>
                        </text>
                    </g>
                    <text id="Greg" font-family="PTSans-CaptionBold, PT Sans Caption" font-size="64" font-weight="bold" fill="#5E2DE7">
                        <tspan x="2" y="72">Greg</tspan>
                    </text>
                    <g id="Group-2" transform="translate(175.000000, 311.000000)">
                        <path d="M58.5,1.23761624e-15 L488.146357,1.03271429e-14 L891.930655,0 C924.239312,-5.93500417e-15 950.430655,26.1913421 950.430655,58.5 L950.430655,58.5 C950.430655,90.8086579 924.239312,117 891.930655,117 L58.5,117 C26.1913421,117 3.95666944e-15,90.8086579 0,58.5 L0,58.5 C-3.95666944e-15,26.1913421 26.1913421,-1.17042319e-15 58.5,-7.10542736e-15 Z" id="Rectangle-2" fill="#323232"></path>
                        <text id="Oh,-I’m-an-accountan" font-family="PTSans-Caption, PT Sans Caption" font-size="46" font-weight="normal" fill="#C6C6C6">
                            <tspan x="52.3391099" y="72">Oh, I’m an accountant. And you?</tspan>
                        </text>
                    </g>
                    <text id="Greg" font-family="PTSans-CaptionBold, PT Sans Caption" font-size="64" font-weight="bold" fill="#5E2DE7">
                        <tspan x="0" y="362">Greg</tspan>
                    </text>
                    <g id="Group-2" transform="translate(177.000000, 654.000000)">
                        <path d="M58.5,3.24570633e-15 L186.13448,1.03271429e-14 L303.90753,-5.68434189e-14 C336.216188,-3.40825703e-14 362.40753,26.1913421 362.40753,58.5 L362.40753,58.5 C362.40753,90.8086579 336.216188,117 303.90753,117 L58.5,117 C26.1913421,117 3.95666944e-15,90.8086579 0,58.5 L0,58.5 C-3.95666944e-15,26.1913421 26.1913421,5.93500417e-15 58.5,0 Z" id="Rectangle-2" fill="#323232"></path>
                        <text id="You-too.-Bye!" font-family="PTSans-Caption, PT Sans Caption" font-size="46" font-weight="normal" fill="#C6C6C6">
                            <tspan x="39.8150594" y="72">You too. Bye!</tspan>
                        </text>
                    </g>
                    <text id="Greg" font-family="PTSans-CaptionBold, PT Sans Caption" font-size="64" font-weight="bold" fill="#5E2DE7">
                        <tspan x="3" y="712">Greg</tspan>
                    </text>
                    <g id="Group-2" transform="translate(178.000000, 161.000000)">
                        <path d="M58.5,8.78467821e-16 L687.717687,1.03271429e-14 L1280.5,-7.10542736e-15 C1312.80866,-1.30404315e-14 1339,26.1913421 1339,58.5 L1339,58.5 C1339,90.8086579 1312.80866,117 1280.5,117 L58.5,117 C26.1913421,117 3.95666944e-15,90.8086579 0,58.5 L0,58.5 C-3.95666944e-15,26.1913421 26.1913421,1.30404315e-14 58.5,7.10542736e-15 Z" id="Rectangle-2" fill="#323232"></path>
                        <text id="Wow!-That’s-cool..." font-family="PTSans-Caption, PT Sans Caption" font-size="46" font-weight="normal" fill="#C6C6C6">
                            <tspan x="49" y="52">Wow! That’s cool... Umm, by the way, what do you do </tspan>
                            <tspan x="49" y="100">here?</tspan>
                        </text>
                    </g>
                    <text id="Kate" font-family="PTSans-CaptionBold, PT Sans Caption" font-size="64" font-weight="bold" fill="#E91E63">
                        <tspan x="1552" y="213">Kate</tspan>
                    </text>
                    <g id="Group-2" transform="translate(178.000000, 472.000000)">
                        <path d="M73,1.36791731e-15 L687.717687,1.2886862e-14 L1266,0 C1306.31679,-7.40607357e-15 1339,32.6832133 1339,73 L1339,73 C1339,113.316787 1306.31679,146 1266,146 L73,146 C32.6832133,146 4.93738238e-15,113.316787 0,73 L0,73 C-4.93738238e-15,32.6832133 32.6832133,7.40607357e-15 73,0 Z" id="Rectangle-2" fill="#323232"></path>
                        <text id="I’m-an-intern-in-the" font-family="PTSans-Caption, PT Sans Caption" font-size="46" font-weight="normal" fill="#C6C6C6">
                            <tspan x="44.3617309" y="62">I’m an intern in the marketing department. Oh, this </tspan>
                            <tspan x="44.3617309" y="115">is my floor. Have a good day. Goodbye!</tspan>
                        </text>
                    </g>
                    <text id="Kate" font-family="PTSans-CaptionBold, PT Sans Caption" font-size="64" font-weight="bold" fill="#E91E63">
                        <tspan x="1552" y="530">Kate</tspan>
                    </text>
                </g>
            </g>
        </g>
    </g>
</svg>