<?xml version="1.0" encoding="UTF-8"?>
<svg width="352px" height="430px" viewBox="0 0 552 530" version="1.1" xmlns="http://www.w3.org/2000/svg" xmlns:xlink="http://www.w3.org/1999/xlink">
    <!-- Generator: Sketch 51.3 (57544) - http://www.bohemiancoding.com/sketch -->
    <title>Group 7</title>
    <desc>Created with Sketch.</desc>
    <defs></defs>
    <g id="Page-1" stroke="none" stroke-width="1" fill="none" fill-rule="evenodd">
        <g id="Artboard" transform="translate(212.000000, 1913.000000)">
            <g id="Group-7" transform="translate(210.000000, 5913.000000)">
                <g id="Group-2" transform="translate(195.000000, 0.000000)">
                    <path d="M58.5,1.14646044e-15 L526.959184,1.03271429e-14 L967.5,-1.13686838e-13 C999.808658,-6.22301365e-14 1026,26.1913421 1026,58.5 L1026,58.5 C1026,90.8086579 999.808658,117 967.5,117 L58.5,117 C26.1913421,117 3.95666944e-15,90.8086579 0,58.5 L0,58.5 C-3.95666944e-15,26.1913421 26.1913421,5.93500417e-15 58.5,0 Z" id="Rectangle-2" fill="#323232"></path>
                    <text id="Really?-Me-too!-I-pl" font-family="PTSans-Caption, PT Sans Caption" font-size="48" font-weight="normal" fill="#C6C6C6">
                        <tspan x="64.3333333" y="57">Really? Me too! I play the saxophone.</tspan>
                    </text>
                </g>
                <text id="Greg" font-family="PTSans-CaptionBold, PT Sans Caption" font-size="64" font-weight="bold" fill="#5E2DE7">
                    <tspan x="2" y="58">Greg</tspan>
                </text>
                <g id="Group-2" transform="translate(193.000000, 311.000000)">
                    <path d="M58.5,1.11986017e-15 L539.476152,1.03271429e-14 L991.870787,1.13686838e-13 C1024.17944,5.03601282e-14 1050.37079,26.1913421 1050.37079,58.5 L1050.37079,58.5 C1050.37079,90.8086579 1024.17944,117 991.870787,117 L58.5,117 C26.1913421,117 3.95666944e-15,90.8086579 0,58.5 L0,58.5 C-3.95666944e-15,26.1913421 26.1913421,5.93500417e-15 58.5,0 Z" id="Rectangle-2" fill="#323232"></path>
                    <text id="Oh,-I’m-an-accountan" font-family="PTSans-Caption, PT Sans Caption" font-size="48" font-weight="normal" fill="#C6C6C6">
                        <tspan x="57.8426966" y="57">Oh, I’m an accountant. And you?</tspan>
                    </text>
                </g>
                <text id="Greg" font-family="PTSans-CaptionBold, PT Sans Caption" font-size="64" font-weight="bold" fill="#5E2DE7">
                    <tspan x="0" y="362">Greg</tspan>
                </text>
                <g id="Group-2" transform="translate(196.000000, 654.000000)">
                    <path d="M58.5,2.93699978e-15 L205.69898,1.03271429e-14 L342,5.68434189e-14 C374.308658,2.2212562e-14 400.5,26.1913421 400.5,58.5 L400.5,58.5 C400.5,90.8086579 374.308658,117 342,117 L58.5,117 C26.1913421,117 3.95666944e-15,90.8086579 0,58.5 L0,58.5 C-3.95666944e-15,26.1913421 26.1913421,1.30404315e-14 58.5,7.10542736e-15 Z" id="Rectangle-2" fill="#323232"></path>
                    <text id="You-too.-Bye!" font-family="PTSans-Caption, PT Sans Caption" font-size="48" font-weight="normal" fill="#C6C6C6">
                        <tspan x="44" y="57">You too. Bye!</tspan>
                    </text>
                </g>
                <text id="Greg" font-family="PTSans-CaptionBold, PT Sans Caption" font-size="64" font-weight="bold" fill="#5E2DE7">
                    <tspan x="3" y="712">Greg</tspan>
                </text>
                <g id="Group-2" transform="translate(190.000000, 161.000000)">
                    <path d="M58.5,7.91566899e-16 L763.217687,1.03271429e-14 L1427.5,-7.10542736e-15 C1459.80866,-1.30404315e-14 1486,26.1913421 1486,58.5 L1486,58.5 C1486,90.8086579 1459.80866,117 1427.5,117 L58.5,117 C26.1913421,117 3.95666944e-15,90.8086579 0,58.5 L0,58.5 C-3.95666944e-15,26.1913421 26.1913421,5.93500417e-15 58.5,0 Z" id="Rectangle-2" fill="#323232"></path>
                    <text id="Wow!-That’s-cool..." font-family="PTSans-Caption, PT Sans Caption" font-size="48" font-weight="normal" fill="#C6C6C6">
                        <tspan x="54" y="57">Wow! That’s cool... Umm, by the way, what do you do here?</tspan>
                    </text>
                </g>
                <text id="Kate" font-family="PTSans-CaptionBold, PT Sans Caption" font-size="64" font-weight="bold" fill="#E91E63">
                    <tspan x="1715" y="219">Kate</tspan>
                </text>
                <g id="Group-2" transform="translate(197.000000, 472.000000)">
                    <path d="M73,1.23843224e-15 L759.622449,1.2886862e-14 L1406,0 C1446.31679,-7.40607357e-15 1479,32.6832133 1479,73 L1479,73 C1479,113.316787 1446.31679,146 1406,146 L73,146 C32.6832133,146 4.93738238e-15,113.316787 0,73 L0,73 C-4.93738238e-15,32.6832133 32.6832133,7.40607357e-15 73,0 Z" id="Rectangle-2" fill="#323232"></path>
                    <text id="I’m-an-intern-in-the" font-family="PTSans-Caption, PT Sans Caption" font-size="48" font-weight="normal" fill="#C6C6C6">
                        <tspan x="49" y="43">I’m an intern in the marketing department. Oh, this is my </tspan>
                        <tspan x="49" y="99">floor. Have a good day. Goodbye!</tspan>
                    </text>
                </g>
                <text id="Kate" font-family="PTSans-CaptionBold, PT Sans Caption" font-size="64" font-weight="bold" fill="#E91E63">
                    <tspan x="1715" y="530">Kate</tspan>
                </text>
            </g>
        </g>
    </g>
</svg>