<?xml version="1.0" encoding="UTF-8"?>
<svg width="1280px" height="630px" viewBox="0 0 2304 2095" version="1.1" xmlns="http://www.w3.org/2000/svg" xmlns:xlink="http://www.w3.org/1999/xlink">
    <!-- Generator: Sketch 51.3 (57544) - http://www.bohemiancoding.com/sketch -->
    <title>Group 4</title>
    <desc>Created with Sketch.</desc>
    <defs></defs>
    <g id="Page-1" stroke="none" stroke-width="1" fill="none" fill-rule="evenodd">
        <g id="Artboard" transform="translate(0.000000, -1442.000000)">
            <g id="Group-4" transform="translate(0.000000, 1442.000000)">
                <path d="M281,0 L2023,0 C2178.19201,-2.85083106e-14 2304,125.807985 2304,281 L2304,2095 L0,2095 L0,281 C-1.90055404e-14,125.807985 125.807985,2.85083106e-14 281,0 Z" id="Rectangle-3"></path>
                <g id="Group-2" transform="translate(451.000000, 461.000000)">
                    <path d="M58.5,3.04732749e-15 L198.251701,1.03271429e-14 L327.5,6.39488462e-14 C359.808658,2.93179894e-14 386,26.1913421 386,58.5 L386,58.5 C386,90.8086579 359.808658,117 327.5,117 L58.5,117 C26.1913421,117 3.95666944e-15,90.8086579 0,58.5 L0,58.5 C-3.95666944e-15,26.1913421 26.1913421,-1.17042319e-15 58.5,-7.10542736e-15 Z" id="Rectangle-2" fill="#323232"></path>
                    <text id="Hi." font-family="PTSans-Caption, PT Sans Caption" font-size="48" font-weight="normal" fill="#C6C6C6">
                        <tspan x="64.3333333" y="70">Hi.</tspan>
                    </text>
                </g>
                <text id="Greg" font-family="PTSans-CaptionBold, PT Sans Caption" font-size="64" font-weight="bold" fill="#5E2DE7">
                    <tspan x="258" y="535">Greg</tspan>
                </text>
                <g id="Group-2" transform="translate(449.000000, 738.000000)">
                    <path d="M58.5,1.11986017e-15 L539.476152,1.03271429e-14 L991.870787,1.13686838e-13 C1024.17944,5.03601282e-14 1050.37079,26.1913421 1050.37079,58.5 L1050.37079,58.5 C1050.37079,90.8086579 1024.17944,117 991.870787,117 L58.5,117 C26.1913421,117 3.95666944e-15,90.8086579 0,58.5 L0,58.5 C-3.95666944e-15,26.1913421 26.1913421,5.93500417e-15 58.5,0 Z" id="Rectangle-2" fill="#323232"></path>
                    <text id="I’m-sorry,-what’s-yo" font-family="PTSans-Caption, PT Sans Caption" font-size="48" font-weight="normal" fill="#C6C6C6">
                        <tspan x="57.8426966" y="70">I’m sorry, what’s your name?</tspan>
                    </text>
                </g>
                <text id="Greg" font-family="PTSans-CaptionBold, PT Sans Caption" font-size="64" font-weight="bold" fill="#5E2DE7">
                    <tspan x="256" y="815">Greg</tspan>
                </text>
                <g id="Group-2" transform="translate(449.000000, 1031.000000)">
                    <path d="M58.5,1.47217573e-15 L410.370748,1.03271429e-14 L740.5,-1.13686838e-13 C772.808658,-6.22301365e-14 799,26.1913421 799,58.5 L799,58.5 C799,90.8086579 772.808658,117 740.5,117 L58.5,117 C26.1913421,117 3.95666944e-15,90.8086579 0,58.5 L0,58.5 C-3.95666944e-15,26.1913421 26.1913421,5.93500417e-15 58.5,0 Z" id="Rectangle-2" fill="#323232"></path>
                    <text id="I’m-Greg,-nice-to-me" font-family="PTSans-Caption, PT Sans Caption" font-size="48" font-weight="normal" fill="#C6C6C6">
                        <tspan x="44" y="70">I’m Greg, nice to meet you.</tspan>
                    </text>
                </g>
                <text id="Greg" font-family="PTSans-CaptionBold, PT Sans Caption" font-size="64" font-weight="bold" fill="#5E2DE7">
                    <tspan x="256" y="1115">Greg</tspan>
                </text>
                <g id="Group-2" transform="translate(451.000000, 1361.000000)">
                    <path d="M58,8.89420913e-16 L667.687075,1.02388767e-14 L1242,-2.34479103e-13 C1274.03252,-1.26561024e-13 1300,25.9674845 1300,58 L1300,58 C1300,90.0325155 1274.03252,116 1242,116 L58,116 C25.9674845,116 3.92285176e-15,90.0325155 0,58 L0,58 C-3.92285176e-15,25.9674845 25.9674845,5.88427763e-15 58,0 Z" id="Rectangle-2" fill="#323232"></path>
                    <text id="From-New-York,-and-y" font-family="PTSans-Caption, PT Sans Caption" font-size="48" font-weight="normal" fill="#C6C6C6">
                        <tspan x="44.5398773" y="70">From New York, and you’re from Russia, right?</tspan>
                    </text>
                </g>
                <text id="Greg" font-family="PTSans-CaptionBold, PT Sans Caption" font-size="64" font-weight="bold" fill="#5E2DE7">
                    <tspan x="256" y="1445">Greg</tspan>
                </text>
                <g id="Group-2" transform="translate(1232.000000, 578.000000)">
                    <path d="M58.5,2.13092104e-15 L283.510204,1.03271429e-14 L493.5,5.68434189e-14 C525.808658,2.2212562e-14 552,26.1913421 552,58.5 L552,58.5 C552,90.8086579 525.808658,117 493.5,117 L58.5,117 C26.1913421,117 3.95666944e-15,90.8086579 0,58.5 L0,58.5 C-3.95666944e-15,26.1913421 26.1913421,2.01458589e-14 58.5,1.42108547e-14 Z" id="Rectangle-2" fill="#323232"></path>
                    <text id="Good-morning." font-family="PTSans-Caption, PT Sans Caption" font-size="48" font-weight="normal" fill="#C6C6C6">
                        <tspan x="48" y="70">Good morning.</tspan>
                    </text>
                </g>
                <text id="Kate" font-family="PTSans-CaptionBold, PT Sans Caption" font-size="64" font-weight="bold" fill="#E91E63">
                    <tspan x="1823" y="664">Kate</tspan>
                </text>
                <g id="Group-2" transform="translate(1232.000000, 889.000000)">
                    <path d="M58.5,2.13092104e-15 L283.510204,1.03271429e-14 L493.5,5.68434189e-14 C525.808658,2.2212562e-14 552,26.1913421 552,58.5 L552,58.5 C552,90.8086579 525.808658,117 493.5,117 L58.5,117 C26.1913421,117 3.95666944e-15,90.8086579 0,58.5 L0,58.5 C-3.95666944e-15,26.1913421 26.1913421,2.01458589e-14 58.5,1.42108547e-14 Z" id="Rectangle-2" fill="#323232"></path>
                    <text id="Oh,-I’m-Kate." font-family="PTSans-Caption, PT Sans Caption" font-size="48" font-weight="normal" fill="#C6C6C6">
                        <tspan x="56" y="70">Oh, I’m Kate.</tspan>
                    </text>
                </g>
                <text id="Kate" font-family="PTSans-CaptionBold, PT Sans Caption" font-size="64" font-weight="bold" fill="#E91E63">
                    <tspan x="1823" y="973">Kate</tspan>
                </text>
                <g id="Group-2" transform="translate(458.000000, 1673.000000)">
                    <path d="M58.5,1.12025563e-15 L539.285714,1.03271429e-14 L991.5,1.13686838e-13 C1023.80866,5.03601282e-14 1050,26.1913421 1050,58.5 L1050,58.5 C1050,90.8086579 1023.80866,117 991.5,117 L58.5,117 C26.1913421,117 3.95666944e-15,90.8086579 0,58.5 L0,58.5 C-3.95666944e-15,26.1913421 26.1913421,1.30404315e-14 58.5,7.10542736e-15 Z" id="Rectangle-2" fill="#323232"></path>
                    <text id="Umm,-I-like-your-mug" font-family="PTSans-Caption, PT Sans Caption" font-size="48" font-weight="normal" fill="#C6C6C6">
                        <tspan x="57.8222778" y="70">Umm, I like your mug.</tspan>
                    </text>
                </g>
                <text id="Greg" font-family="PTSans-CaptionBold, PT Sans Caption" font-size="64" font-weight="bold" fill="#5E2DE7">
                    <tspan x="265" y="1750">Greg</tspan>
                </text>
                <g id="Group-2" transform="translate(1229.000000, 1515.000000)">
                    <path d="M58.5,2.13092104e-15 L283.510204,1.03271429e-14 L493.5,5.68434189e-14 C525.808658,2.2212562e-14 552,26.1913421 552,58.5 L552,58.5 C552,90.8086579 525.808658,117 493.5,117 L58.5,117 C26.1913421,117 3.95666944e-15,90.8086579 0,58.5 L0,58.5 C-3.95666944e-15,26.1913421 26.1913421,2.01458589e-14 58.5,1.42108547e-14 Z" id="Rectangle-2" fill="#323232"></path>
                    <text id="That’s-right." font-family="PTSans-Caption, PT Sans Caption" font-size="48" font-weight="normal" fill="#C6C6C6">
                        <tspan x="56" y="70">That’s right.</tspan>
                    </text>
                </g>
                <text id="Kate" font-family="PTSans-CaptionBold, PT Sans Caption" font-size="64" font-weight="bold" fill="#E91E63">
                    <tspan x="1823" y="1599">Kate</tspan>
                </text>
                <g id="Group-2" transform="translate(592.000000, 1196.000000)">
                    <path d="M58.5,9.85149424e-16 L613.244898,1.03271429e-14 L1135.5,0 C1167.80866,-5.93500417e-15 1194,26.1913421 1194,58.5 L1194,58.5 C1194,90.8086579 1167.80866,117 1135.5,117 L58.5,117 C26.1913421,117 3.95666944e-15,90.8086579 0,58.5 L0,58.5 C-3.95666944e-15,26.1913421 26.1913421,5.93500417e-15 58.5,0 Z" id="Rectangle-2" fill="#323232"></path>
                    <text id="Nice-to-meet-you-too" font-family="PTSans-Caption, PT Sans Caption" font-size="48" font-weight="normal" fill="#C6C6C6">
                        <tspan x="59" y="70">Nice to meet you too. Where are you from?</tspan>
                    </text>
                </g>
                <text id="Kate" font-family="PTSans-CaptionBold, PT Sans Caption" font-size="64" font-weight="bold" fill="#E91E63">
                    <tspan x="1823" y="1280">Kate</tspan>
                </text>
                <text id="Kate-is-doing-an-int" font-family="PTSans-Caption, PT Sans Caption" font-size="50" font-weight="normal" line-spacing="72" fill="#323232" fill-opacity="0.751754982">
                    <tspan x="263" y="331">Kate is doing an internship in London for a company that makes shoes.</tspan>
                </text>
                <text id="Kate-and-Greg-—-Elev" font-family="PTSans-Caption, PT Sans Caption" font-size="124" font-weight="normal" line-spacing="133" fill="#323232">
                    <tspan x="256" y="213">Kate and Greg — Elevator Talk</tspan>
                </text>
                <g id="Group-2" transform="translate(1128.000000, 1838.000000)">
                    <path d="M58.5,1.79309209e-15 L336.92517,1.03271429e-14 L597.5,7.10542736e-15 C629.808658,1.17042319e-15 656,26.1913421 656,58.5 L656,58.5 C656,90.8086579 629.808658,117 597.5,117 L58.5,117 C26.1913421,117 3.95666944e-15,90.8086579 0,58.5 L0,58.5 C-3.95666944e-15,26.1913421 26.1913421,5.93500417e-15 58.5,0 Z" id="Rectangle-2" fill="#323232"></path>
                    <text id="Thank-you!-I-love-ja" font-family="PTSans-Caption, PT Sans Caption" font-size="48" font-weight="normal" fill="#C6C6C6">
                        <tspan x="67" y="70">Thank you! I love jazz.</tspan>
                    </text>
                </g>
                <text id="Kate" font-family="PTSans-CaptionBold, PT Sans Caption" font-size="64" font-weight="bold" fill="#E91E63">
                    <tspan x="1823" y="1896">Kate</tspan>
                </text>
            </g>
        </g>
    </g>
</svg>