<?xml version="1.0" encoding="UTF-8"?>
<svg width="316px" height="94px" viewBox="0 0 316 94" version="1.1" xmlns="http://www.w3.org/2000/svg" xmlns:xlink="http://www.w3.org/1999/xlink">
    <!-- Generator: Sketch 51.3 (57544) - http://www.bohemiancoding.com/sketch -->
    <title>Download_on_the_App_Store_Badge_RU_RGB_blk_100317</title>
    <desc>Created with Sketch.</desc>
    <defs></defs>
    <g id="Page-1" stroke="none" stroke-width="1" fill="none" fill-rule="evenodd">
        <g id="Artboard" transform="translate(-444.000000, -1001.000000)" fill-rule="nonzero">
            <g id="Download_on_the_App_Store_Badge_RU_RGB_blk_100317" transform="translate(444.000000, 1001.000000)">
                <g id="Group">
                    <g id="Shape">
                        <path d="M290.819413,-1.02999206e-18 L25.177063,-1.02999206e-18 C24.2087632,-1.02999206e-18 23.2520819,-1.02999206e-18 22.2863434,0.0047 C21.4779306,0.0094 20.6759607,0.0230535 19.8597846,0.034545 C18.0866728,0.0531142385 16.3177308,0.191939211 14.568331,0.4498135 C12.8213884,0.713301676 11.1291701,1.21005199 9.54890975,1.9232635 C7.97058211,2.64250852 6.52841902,3.5770937 5.27473872,4.6931145 C4.01447681,5.80599694 2.9639512,7.09233849 2.16355731,8.502676 C1.36095436,9.91020643 0.804426894,11.418505 0.513196268,12.975478 C0.219196837,14.5304845 0.0609930679,16.1034233 0.0400047516,17.680178 C0.0155001909,18.400688 0.0129124248,19.123595 0,19.844199 L0,74.16271 C0.0129124248,74.892385 0.0155001909,75.599265 0.0400047516,76.329175 C0.060999504,77.9058515 0.219203276,79.4787117 0.513196268,81.03364 C0.803622719,82.5915232 1.36018309,84.1006876 2.16355731,85.508745 C2.96358778,86.9145218 4.01426112,88.1956556 5.27473872,89.30235 C6.52366547,90.423333 7.96676073,91.358554 9.54890975,92.072295 C11.1291581,92.7874154 12.821194,93.2871224 14.568331,93.554675 C16.3180282,93.8104836 18.0867883,93.949365 19.8597846,93.970155 C20.6759607,93.986135 21.4779306,93.9953 22.2863434,93.9953 C23.2520555,94 24.208816,94 25.177063,94 L290.819413,94 C291.768437,94 292.732776,94 293.681799,93.9953 C294.486383,93.9953 295.311564,93.986135 296.116148,93.970155 C297.885792,93.9504707 299.651222,93.8115805 301.397303,93.554675 C303.150077,93.285239 304.848179,92.7856642 306.436054,92.072295 C308.016776,91.3581408 309.458539,90.4229453 310.706396,89.30235 C311.963621,88.1913213 313.016538,86.9111245 313.826502,85.508745 C314.623848,84.0996633 315.175111,82.5906196 315.461284,81.03364 C315.755748,79.4784984 315.919565,77.905988 315.951375,76.329175 C315.961673,75.599265 315.961673,74.892385 315.961673,74.16271 C315.98227,73.308955 315.98227,72.4599 315.98227,71.59228 L315.98227,22.4099055 C315.98227,21.549312 315.98227,20.695604 315.961673,19.844199 C315.961673,19.123595 315.961673,18.400688 315.951375,17.680084 C315.919572,16.1031927 315.755754,14.5306038 315.461284,12.975384 C315.174313,11.4193118 314.623083,9.9111327 313.826502,8.502582 C312.196538,5.67571079 309.611885,3.37465968 306.436054,1.923052 C304.848174,1.21158334 303.14989,0.714964963 301.397303,0.449602 C299.651525,0.19059154 297.88591,0.0517182475 296.116148,0.034216 C295.311564,0.022748 294.486383,0.008977 293.681799,0.0043945 C292.732776,-0.0003055 291.768437,-0.0003055 290.819413,-0.0003055 L290.819413,-1.02999206e-18 Z" fill="#A6A6A6"></path>
                        <path d="M22.2992294,91.94375 C21.4946982,91.94375 20.7096017,91.934585 19.9113815,91.918605 C18.2578036,91.8994307 16.6080906,91.7713188 14.9757721,91.53532 C13.4537176,91.3020312 11.9792558,90.8680715 10.6010215,90.247755 C9.23542487,89.6325783 7.98989095,88.8259412 6.91213452,87.858745 C5.8187778,86.9029418 4.90850838,85.7943733 4.21739861,84.57697 C3.5186734,83.3516545 3.03511398,82.038264 2.78356494,80.68255 C2.51191382,79.22582 2.36493931,77.7528361 2.34390876,76.2763 C2.3271675,75.780685 2.3052507,74.130515 2.3052507,74.130515 L2.3052507,19.844199 C2.3052507,19.844199 2.32859341,18.2193855 2.34404079,17.74203 C2.36417738,16.2678328 2.51029723,14.7971348 2.78113561,13.3426655 C3.03314897,11.9832377 3.51708275,10.6660598 4.21618394,9.4367305 C4.90475371,8.22016805 5.8099695,7.11077169 6.89673995,6.151548 C7.98228889,5.18321033 9.23180703,4.37241968 10.5997276,3.7487435 C11.9747944,3.13041997 13.4464696,2.69952148 14.9654475,2.4704845 C16.6031267,2.23211493 18.2585669,2.1032408 19.9178773,2.0849435 L22.3005233,2.05625 L293.668861,2.05625 L296.079972,2.086095 C297.724189,2.10348311 299.364591,2.23120751 300.987222,2.4681815 C302.521577,2.70009141 304.008589,3.13399651 305.399363,3.755629 C308.139803,5.01251721 310.369647,7.00103293 311.776358,9.4424645 C312.4643,10.6633073 312.94077,11.9697409 313.189595,13.3174265 C313.463658,14.7838297 313.617044,16.2660851 313.648527,17.75237 C313.656185,18.41789 313.656185,19.13276 313.656185,19.844199 C313.677046,20.725449 313.677046,21.5642345 313.677046,22.4099055 L313.677046,71.59228 C313.677046,72.446035 313.677046,73.27911 313.656185,74.119 C313.656185,74.88322 313.656185,75.583285 313.645887,76.303795 C313.615085,77.7635578 313.464257,79.219356 313.194612,80.65952 C312.948219,82.0250137 312.467292,83.3486559 311.7687,84.58402 C311.072705,85.7882097 310.167663,86.8871756 309.08693,87.840415 C308.008204,88.8128089 306.760471,89.6241653 305.391705,90.24329 C304.004784,90.8683751 302.51996,91.3039397 300.987222,91.53532 C299.355027,91.7725783 297.705155,91.9006984 296.051454,91.918605 C295.278029,91.934585 294.468163,91.94375 293.681799,91.94375 L290.819413,91.94845 L22.2992294,91.94375 Z" fill="#000000"></path>
                    </g>
                    <g id="_Group_" transform="translate(19.977251, 12.047126)" fill="#FFFFFF">
                        <g id="_Group_2">
                            <g id="_Group_3">
                                <path d="M42.0759925,33.2153054 C42.1379249,28.4564821 44.6580232,24.060777 48.7533669,21.5682325 C46.1580627,17.8988201 41.9669359,15.6557407 37.4443107,15.5156571 C32.6861402,15.0212246 28.0733013,18.334337 25.6486247,18.334337 C23.1770248,18.334337 19.4438541,15.5647469 15.4238456,15.6466286 C10.1345626,15.8158017 5.32305356,18.7207592 2.74970979,23.2986618 C-2.73032978,32.6914191 1.35728671,46.4956099 6.60670558,54.088006 C9.23310097,57.8057866 12.3026032,61.958643 16.3189848,61.8113736 C20.2492556,61.6499944 21.7171355,59.3302912 26.4613083,59.3302912 C31.1614481,59.3302912 32.5386269,61.8113736 36.6365007,61.7177384 C40.8538643,61.6499664 43.5110035,57.9834355 46.0452526,54.2304505 C47.9323134,51.581396 49.3844036,48.653614 50.3477354,45.5555543 C45.3387882,43.4582455 42.0818388,38.5993461 42.0759925,33.2153054 Z" id="_Path_"></path>
                                <path d="M34.3358475,10.5223833 C36.6353293,7.78960183 37.7681967,4.27707421 37.493869,0.730736348 C33.9807722,1.0960219 30.7356547,2.75822815 28.4051072,5.38616009 C26.1037987,7.97896815 24.9379611,11.3710552 25.1643751,14.8153 C28.7245783,14.8515893 32.1049163,13.2693451 34.3358475,10.5223833 Z" id="_Path_2"></path>
                            </g>
                        </g>
                        <g id="Group" transform="translate(66.198582, 31.333333)">
                            <path d="M18.5294033,22.7477177 L7.39504155,22.7477177 L4.72113871,30.6353752 L0.00506586219,30.6353752 L10.5513534,1.45307523 L15.4511877,1.45307523 L25.9974753,30.6353752 L21.2009774,30.6353752 L18.5294033,22.7477177 Z M8.54820802,19.1079672 L17.3740257,19.1079672 L13.023194,6.30688273 L12.9014391,6.30688273 L8.54820802,19.1079672 Z" id="Shape"></path>
                            <path d="M48.7738715,19.9984057 C48.7738715,26.6100837 45.2316418,30.8579672 39.8861414,30.8579672 C37.1230989,31.0023621 34.5204639,29.5565624 33.1853181,27.1355672 L33.0841693,27.1355672 L33.0841693,37.6738602 L28.7126609,37.6738602 L28.7126609,9.35913323 L32.9441136,9.35913323 L32.9441136,12.8979042 L33.0245151,12.8979042 C34.4189762,10.4920868 37.0244177,9.0469095 39.8057399,9.13651773 C45.210871,9.13654123 48.7738715,13.4050812 48.7738715,19.9984057 Z M44.2806082,19.9984057 C44.2806082,15.6908557 42.052348,12.8588942 38.6525499,12.8588942 C35.3124766,12.8588942 33.0658449,15.7504987 33.0658449,19.9984057 C33.0658449,24.2853227 35.3124766,27.1562707 38.6525499,27.1562707 C42.0523715,27.1562707 44.2806082,24.3449892 44.2806082,19.9984057 Z" id="Shape"></path>
                            <path d="M72.2141329,19.9984057 C72.2141329,26.6100837 68.6719032,30.8579672 63.3264028,30.8579672 C60.5633603,31.0023621 57.9607253,29.5565624 56.6255795,27.1355672 L56.5244308,27.1355672 L56.5244308,37.6738602 L52.1529224,37.6738602 L52.1529224,9.35913323 L56.3842809,9.35913323 L56.3842809,12.8979042 L56.4646824,12.8979042 C57.8591537,10.4920883 60.4646051,9.04691945 63.2459307,9.13654123 C68.6512266,9.13654123 72.2141329,13.4050812 72.2141329,19.9984057 Z M67.7208696,19.9984057 C67.7208696,15.6908557 65.4926094,12.8588942 62.0928113,12.8588942 C58.752738,12.8588942 56.5061064,15.7504987 56.5061064,19.9984057 C56.5061064,24.2853227 58.752738,27.1562707 62.0928113,27.1562707 C65.492633,27.1562707 67.7208932,24.3449892 67.7208932,19.9984057 L67.7208696,19.9984057 Z" id="Shape"></path>
                            <path d="M87.7062187,22.5044457 C88.0301299,25.3983532 90.8441826,27.2984457 94.6895998,27.2984457 C98.3742611,27.2984457 101.025182,25.3982592 101.025182,22.7889132 C101.025182,20.5238187 99.4263494,19.1675632 95.6406334,18.2380912 L91.8549175,17.3269962 C86.4910456,16.0326632 84.0009042,13.5265997 84.0009042,9.45999523 C84.0009042,4.42493223 88.3930893,0.96648423 94.629875,0.96648423 C100.802302,0.96648423 105.033731,4.42493223 105.176163,9.45999523 L100.763254,9.45999523 C100.499091,6.54773423 98.0893509,4.78984023 94.5677979,4.78984023 C91.0462449,4.78984023 88.6365285,6.56841423 88.6365285,9.15708023 C88.6365285,11.2202157 90.1756363,12.4342257 93.9406756,13.3635802 L97.158994,14.1530392 C103.152293,15.5690082 105.642435,17.9741392 105.642435,22.2426322 C105.642435,27.7022462 101.289298,31.1216842 94.3656415,31.1216842 C87.8876278,31.1216842 83.5138376,27.7825692 83.2312798,22.5042342 L87.7062187,22.5044457 Z" id="Shape"></path>
                            <path d="M115.076933,4.32407023 L115.076933,9.35913323 L119.126835,9.35913323 L119.126835,12.8175812 L115.076933,12.8175812 L115.076933,24.5469247 C115.076933,26.3690912 115.88784,27.2182167 117.668129,27.2182167 C118.148918,27.2098412 118.62893,27.1761109 119.106159,27.1171667 L119.106159,30.5549582 C118.305739,30.7043702 117.492179,30.7720383 116.678047,30.7569172 C112.366287,30.7569172 110.684748,29.1389892 110.684748,25.0127182 L110.684748,12.8175812 L107.588184,12.8175812 L107.588184,9.35913323 L110.684701,9.35913323 L110.684701,4.32407023 L115.076933,4.32407023 Z" id="Shape"></path>
                            <path d="M121.472334,19.9984057 C121.472334,13.3041252 125.418853,9.09753123 131.572979,9.09753123 C137.747758,9.09753123 141.675906,13.3040312 141.675906,19.9984057 C141.675906,26.7110632 137.768435,30.8992802 131.572979,30.8992802 C125.379711,30.8992802 121.472334,26.7110397 121.472334,19.9984057 Z M137.22169,19.9984057 C137.22169,15.4062707 135.115185,12.6959687 131.572955,12.6959687 C128.030726,12.6959687 125.926526,15.4269272 125.926526,19.9984057 C125.926526,24.6088942 128.030726,27.2985632 131.572955,27.2985632 C135.115185,27.2985632 137.221596,24.6088942 137.221596,19.9984057 L137.22169,19.9984057 Z" id="Shape"></path>
                            <path d="M145.280071,9.35913323 L149.449423,9.35913323 L149.449423,12.9804832 L149.550572,12.9804832 C150.132003,10.649256 152.270139,9.04482439 154.673239,9.13649423 C155.177017,9.13473697 155.679404,9.18939448 156.170994,9.29944323 L156.170994,13.3844012 C155.535006,13.190252 154.871561,13.1011118 154.206826,13.1204962 C152.921644,13.0684095 151.677874,13.5800968 150.802091,14.5212043 C149.926309,15.4623117 149.506011,16.7388165 149.651556,18.0155462 L149.651556,30.6353282 L145.280048,30.6353282 L145.280071,9.35913323 Z" id="Shape"></path>
                            <path d="M176.326249,24.3862787 C175.738175,28.2486212 171.973112,30.8992567 167.155961,30.8992567 C160.960505,30.8992567 157.115065,26.7523292 157.115065,20.0993617 C157.115065,13.4257377 160.981182,9.09750773 166.9722,9.09750773 C172.864421,9.09750773 176.569759,13.1411527 176.569759,19.5921847 L176.569759,21.0884767 L161.527926,21.0884767 L161.527926,21.3523817 C161.387488,22.936356 161.934972,24.5042709 163.031114,25.6572996 C164.127257,26.8103282 165.66641,27.4373385 167.257063,27.3788392 C169.378464,27.5774133 171.378529,26.3604377 172.175292,24.3862552 L176.326249,24.3862787 Z M161.548562,18.0362497 L172.195945,18.0362262 C172.275278,16.6129193 171.756669,15.2210745 170.765067,14.1960244 C169.773464,13.1709743 168.398776,12.6056592 166.9722,12.6362787 C165.534339,12.6277065 164.152621,13.1932866 163.134158,14.2073084 C162.115696,15.2213301 161.544878,16.5997721 161.548562,18.0362497 Z" id="Shape"></path>
                        </g>
                    </g>
                </g>
                <g id="_Group_4" transform="translate(90.000000, 21.000000)" fill="#FFFFFF">
                    <g id="Group">
                        <path d="M4.08374012,6.57592346 L5.95810707,6.57592346 C6.61043471,6.65703271 7.26701582,6.46212258 7.76900577,6.03834706 C8.27099573,5.61457155 8.57266746,5.00053304 8.60103846,4.34478395 C8.60103846,3.05398025 7.62829875,2.22016173 5.97875717,2.22016173 C5.31090554,2.12698601 4.63368953,2.30729962 4.10097964,2.72013342 C3.56826976,3.13296722 3.22530061,3.74326579 3.14999834,4.41236296 L1.09203576,4.41236296 C1.1636376,3.19709162 1.7376845,2.06614554 2.67692608,1.28992556 C3.61616766,0.513705593 4.83617073,0.161990079 6.04524158,0.318871605 C8.80516674,0.318871605 10.7484848,1.86164815 10.7484848,4.08249012 C10.7618244,5.6156538 9.70056106,6.94973484 8.2018736,7.28375556 L8.2018736,7.44868025 C9.99676835,7.52817041 11.3900812,9.04065529 11.3197104,10.8331901 C11.1908182,12.0836607 10.5630341,13.2296269 9.57800624,14.0125222 C8.59297835,14.7954175 7.33370196,15.1492776 6.08430998,14.9942605 C4.83208492,15.1647232 3.56422585,14.8199816 2.57147493,14.039091 C1.57872402,13.2582004 0.946252566,12.1081559 0.819097297,10.8526827 L2.90912744,10.8526827 C3.03530686,12.1915963 4.26731227,13.0552753 6.08430998,13.0552753 C7.90130769,13.0552753 9.08743181,12.0851728 9.08743181,10.7176185 C9.08743181,9.33059506 7.97014137,8.47615802 6.01777859,8.47615802 L4.08374012,8.47615802 L4.08374012,6.57592346 Z" id="Shape"></path>
                        <path d="M13.6941904,11.668158 C13.6941904,9.7668679 15.1143021,8.67077901 17.6287518,8.51500247 L20.4942297,8.35007778 L20.4942297,7.43838272 C20.4942297,6.32280123 19.7577798,5.69286914 18.328506,5.69286914 C17.1630555,5.69286914 16.3577719,6.12008765 16.1237609,6.86685802 L14.1025644,6.86685802 C14.3159254,5.05261605 16.0274173,3.88894815 18.427152,3.88894815 C21.079269,3.88894815 22.5750977,5.20721975 22.5750977,7.43838272 L22.5750977,14.6552395 L20.5630634,14.6552395 L20.5630634,13.1708704 L20.3978861,13.1708704 C19.7153017,14.2548704 18.5014445,14.8884076 17.2204012,14.8292654 C16.3223593,14.9225339 15.426711,14.6321361 14.7548771,14.0298638 C14.0830431,13.4275914 13.6977286,12.5696571 13.6941904,11.668158 Z M20.4942297,10.7656111 L20.4942297,9.88255679 L17.9108524,10.0474815 C16.4540216,10.1448272 15.7932888,10.6396247 15.7932888,11.5707889 C15.7932888,12.5214222 16.619199,13.0746272 17.7549312,13.0746272 C18.4272755,13.1426082 19.0984646,12.9352278 19.6148416,12.4999621 C20.1312187,12.0646963 20.448565,11.438818 20.4942297,10.7656111 Z" id="Shape"></path>
                        <polygon id="Shape" points="28.1155981 5.84747284 28.1155981 14.655216 26.0278703 14.655216 26.0278703 4.09278765 32.9931809 4.09278765 32.9931809 5.84735556"></polygon>
                        <path d="M45.6456805,9.36943951 C45.6456805,12.7253086 43.9456765,14.8293358 41.2752116,14.8293358 C39.9367951,14.9206089 38.666852,14.2285222 38.019731,13.0551815 L37.8545301,13.0551815 L37.8545301,18.1668852 L35.7668023,18.1668852 L35.7668023,4.09281111 L37.7765343,4.09281111 L37.7765343,5.83839506 L37.9325495,5.83839506 C38.5903947,4.62569147 39.8737054,3.8836921 41.2545615,3.9176358 C43.945653,3.91756543 45.6456805,6.01239753 45.6456805,9.36943951 Z M43.4983046,9.36943951 C43.4983046,7.1383 42.4406622,5.79021481 40.671848,5.79021481 C38.9145923,5.79021481 37.8155557,7.16691728 37.8155557,9.37861111 C37.8155557,11.579984 38.9144748,12.9578358 40.6626624,12.9578358 C42.4406622,12.9578123 43.4983046,11.6097272 43.4983046,9.36943951 Z" id="Shape"></path>
                        <path d="M48.4262557,18.4383272 L48.4262557,16.6435543 C48.6521797,16.6722191 48.8798205,16.6852296 49.1075447,16.6824926 C50.0286132,16.7506132 50.8532792,16.1152839 51.0209096,15.208421 L51.1769247,14.6941543 L47.3478927,4.09278765 L49.621448,4.09278765 L52.273659,12.482484 L52.4388364,12.482484 L55.0817678,4.09278765 L57.2956751,4.09278765 L53.3519751,15.0916062 C52.4480455,17.6617667 51.4477723,18.486437 49.2912108,18.486437 C49.1168243,18.4864136 48.6212688,18.4669444 48.4262557,18.4383272 Z" id="Shape"></path>
                        <path d="M58.9222642,11.657837 L61.0008299,11.657837 C61.2050052,12.5890716 62.0791459,13.0746272 63.3019187,13.0746272 C64.6922181,13.0746272 65.5456617,12.4630148 65.5456617,11.5124049 C65.5456617,10.4941926 64.7793996,10.0085667 63.3019187,10.0085667 L61.7189085,10.0085667 L61.7189085,8.38903951 L63.2743852,8.38903951 C64.5362029,8.38903951 65.1785879,7.90456296 65.1785879,7.02150864 C65.1785879,6.24609753 64.556853,5.65397778 63.2743852,5.65397778 C62.1066324,5.65397778 61.2531888,6.14877531 61.1177532,6.98259383 L59.1058129,6.98259383 C59.4187328,4.98939439 61.2726774,3.61353712 63.2743852,3.88899506 C65.7888349,3.88899506 67.2273179,5.02404568 67.2273179,6.80849753 C67.2515119,7.83255558 66.5552292,8.73404828 65.5571262,8.9709321 L65.5571262,9.13585679 C66.7506545,9.28957194 67.6400039,10.3109519 67.6265062,11.5124519 C67.6265062,13.5203531 65.9150143,14.8488519 63.3019187,14.8488519 C60.9916443,14.8487815 59.1149985,13.7916309 58.9222642,11.657837 Z" id="Shape"></path>
                        <polygon id="Shape" points="70.6330815 14.655216 70.6330815 4.09278765 72.7024615 4.09278765 72.7024615 11.3577778 72.8676389 11.3577778 77.7428489 4.09281111 79.8122289 4.09281111 79.8122289 14.6552395 77.7428489 14.6552395 77.7428489 7.35135802 77.5868337 7.35135802 72.7024615 14.655263"></polygon>
                        <polygon id="Shape" points="91.2121435 5.84747284 87.8808753 5.84747284 87.8808753 14.655216 85.7908451 14.655216 85.7908451 5.84747284 82.4595769 5.84747284 82.4595769 4.09290494 91.2121435 4.09290494"></polygon>
                        <path d="M102.458369,11.8032926 C101.871249,13.7954639 99.9400024,15.0822734 97.8722366,14.859079 C96.461644,14.8962596 95.105986,14.312465 94.1649531,13.262591 C93.2239203,12.2127169 92.7926474,10.8029016 92.9855622,9.40720494 C92.7977787,8.00763321 93.2274391,6.59556555 94.1632309,5.53682743 C95.0990227,4.47808931 96.4488642,3.87686028 97.8630509,3.88890123 C100.806525,3.88890123 102.584548,5.89680247 102.584548,9.21359259 L102.584548,9.94098765 L95.1146137,9.94098765 L95.1146137,10.0578025 C95.0477184,10.8417743 95.3155449,11.617493 95.8520795,12.1937601 C96.3886141,12.7700271 97.1439483,13.0932382 97.9319081,13.0837284 C98.95259,13.2055865 99.9458844,12.6997424 100.446358,11.8032222 L102.458369,11.8032926 Z M95.1145432,8.39931358 L100.455473,8.39931358 C100.50881,7.68284256 100.256729,6.9771844 99.7613183,6.45614199 C99.2659075,5.93509959 98.5732119,5.64710064 97.8538418,5.66307901 C97.1241461,5.65316477 96.4214455,5.93830025 95.9055378,6.45364414 C95.3896302,6.96898802 95.1043652,7.67073843 95.1146137,8.39931358 L95.1145432,8.39931358 Z" id="Shape"></path>
                        <path d="M111.30944,4.09278765 L116.079097,4.09278765 C118.148477,4.09278765 119.362111,5.13964074 119.362111,6.77859012 C119.368742,7.85035595 118.623551,8.78065999 117.574926,9.00972963 L117.574926,9.17465432 C118.857966,9.25559319 119.852484,10.3261415 119.837017,11.6096802 C119.837017,13.4525395 118.44902,14.6551691 116.127281,14.6551691 L111.30944,14.6551691 L111.30944,4.09278765 Z M113.37882,5.69282222 L113.37882,8.42790741 L115.4482,8.42790741 C116.710018,8.42790741 117.313405,7.94343086 117.313405,7.05005556 C117.313405,6.22655802 116.788037,5.69282222 115.679932,5.69282222 L113.37882,5.69282222 Z M113.37882,9.96043333 L113.37882,13.0551815 L115.854366,13.0551815 C117.08865,13.0551815 117.749383,12.5111481 117.749383,11.5124049 C117.749383,10.4552543 117.001469,9.96045679 115.592751,9.96045679 L113.37882,9.96043333 Z" id="Shape"></path>
                    </g>
                </g>
            </g>
        </g>
    </g>
</svg>